<?xml version="1.0" encoding="utf-8"?>
<!-- Generator: Adobe Illustrator 16.0.0, SVG Export Plug-In . SVG Version: 6.00 Build 0)  -->
<!DOCTYPE svg PUBLIC "-//W3C//DTD SVG 1.1//EN" "http://www.w3.org/Graphics/SVG/1.1/DTD/svg11.dtd">
<svg version="1.1" id="Ebene_1" xmlns="http://www.w3.org/2000/svg" xmlns:xlink="http://www.w3.org/1999/xlink" x="0px" y="0px"
	 width="164px" height="24px" viewBox="0 0 164 24" enable-background="new 0 0 164 24" xml:space="preserve">
<g>
	<path fill="#444444" d="M15.543,14.575c0,4.704-3.054,6.822-7.536,6.822s-7.536-2.118-7.536-6.822V3.912h4.581v9.9
		c0,2.266,0.616,4.187,2.956,4.187s2.955-1.921,2.955-4.187v-9.9h4.581V14.575z"/>
	<path fill="#444444" d="M17.437,8.271h4.039v2.364h0.049c0.887-1.847,2.66-2.66,4.679-2.66c3.497,0,4.901,2.463,4.901,5.123v8.004
		h-4.433v-6.206c0-2.414-0.837-3.227-2.044-3.227c-1.822,0-2.758,1.256-2.758,4.015v5.418h-4.433V8.271z"/>
	<path fill="#444444" d="M37.974,6.177h-4.433V2.926h4.433V6.177z M33.542,8.271h4.433v12.831h-4.433V8.271z"/>
	<path fill="#444444" d="M39.254,8.271h2.611V5.389l4.359-1.354v4.236h3.103v3.103h-3.103v4.729c0,1.551,0.37,2.339,1.773,2.339
		c0.443,0,0.911-0.098,1.354-0.172l0.147,2.881c-0.837,0.099-1.674,0.247-2.783,0.247c-3.965,0-4.926-1.749-4.926-4.803v-5.221
		h-2.537V8.271z"/>
	<path fill="#444444" d="M54.349,15.979c0.247,1.773,1.601,2.463,3.768,2.463c1.207,0,2.586-0.271,3.916-0.984v3.127
		c-1.429,0.566-3.054,0.813-4.704,0.813c-4.236,0-7.462-2.487-7.462-6.724c0-4.236,2.881-6.699,6.871-6.699
		c4.753,0,6.477,3.374,6.477,7.191v0.813H54.349z M59.226,13.467c0-1.478-0.689-2.684-2.463-2.684c-1.601,0-2.364,1.207-2.463,2.684
		H59.226z"/>
	<path fill="#444444" d="M78.458,21.102H74.37v-2.29H74.32c-0.566,1.428-2.364,2.586-4.408,2.586c-3.817,0-5.861-3.152-5.861-6.945
		c0-3.152,1.945-6.477,5.492-6.477c1.773,0,3.275,0.468,4.408,1.945H74v-7.29h4.458V21.102z M71.316,17.998
		c1.478,0,2.709-1.403,2.709-3.275c0-1.945-1.083-3.349-2.709-3.349c-1.724,0-2.685,1.478-2.685,3.177
		C68.631,16.595,69.641,17.998,71.316,17.998z"/>
	<path fill="#444444" d="M94.809,20.707c-1.306,0.32-2.758,0.69-5.098,0.69c-4.581,0-9.876-2.315-9.876-8.817
		c0-5.985,4.187-8.965,9.852-8.965c1.748,0,3.447,0.394,5.098,0.887l-0.369,3.719c-1.479-0.813-2.906-1.207-4.482-1.207
		c-3.251,0-5.369,2.364-5.369,5.566c0,3.374,2.389,5.417,5.738,5.417c1.502,0,3.029-0.394,4.285-0.886L94.809,20.707z"/>
	<path fill="#444444" d="M105.003,11.817c-0.493-0.148-0.985-0.148-1.503-0.148c-2.068,0-3.226,1.503-3.226,4.015v5.418h-4.434
		V8.271h4.039v2.364h0.05c0.763-1.625,1.871-2.66,3.792-2.66c0.518,0,1.06,0.074,1.503,0.147L105.003,11.817z"/>
	<path fill="#444444" d="M104.878,14.698c0-4.26,3.226-6.723,7.462-6.723s7.462,2.463,7.462,6.723c0,4.236-3.226,6.699-7.462,6.699
		S104.878,18.935,104.878,14.698z M115.222,14.698c0-1.921-0.838-3.62-2.882-3.62s-2.882,1.699-2.882,3.62
		c0,1.896,0.838,3.596,2.882,3.596S115.222,16.595,115.222,14.698z"/>
	<path fill="#444444" d="M119.923,8.271h4.63l2.068,9.235h0.05l2.217-9.235h5.319l2.167,9.235h0.05l2.019-9.235h4.286l-3.916,12.831
		h-5.147l-2.167-9.285h-0.05l-2.438,9.285h-5.147L119.923,8.271z"/>
	<path fill="#444444" d="M157.28,21.102h-4.089v-2.29h-0.049c-0.566,1.428-2.364,2.586-4.408,2.586
		c-3.817,0-5.861-3.152-5.861-6.945c0-3.152,1.945-6.477,5.492-6.477c1.772,0,3.275,0.468,4.408,1.945h0.049v-7.29h4.458V21.102z
		 M150.138,17.998c1.478,0,2.709-1.403,2.709-3.275c0-1.945-1.083-3.349-2.709-3.349c-1.724,0-2.685,1.478-2.685,3.177
		C147.453,16.595,148.463,17.998,150.138,17.998z"/>
	<path fill="#444444" d="M159.421,17.112h4.138v3.989h-4.138V17.112z"/>
</g>
</svg>
